<mxfile host="app.diagrams.net" modified="2024-03-05T17:01:47.512Z" agent="Mozilla/5.0 (Macintosh; Intel Mac OS X 10_15_7) AppleWebKit/537.36 (KHTML, like Gecko) Chrome/122.0.0.0 Safari/537.36" etag="CSawFW4IEqdryBkN-KoO" version="23.1.7" type="device">
  <diagram name="Page-1" id="rlx0BKdUv9--PhpClCus">
    <mxGraphModel dx="1195" dy="567" grid="1" gridSize="10" guides="1" tooltips="1" connect="1" arrows="1" fold="1" page="1" pageScale="1" pageWidth="850" pageHeight="1100" math="0" shadow="0">
      <root>
        <mxCell id="0" />
        <mxCell id="1" parent="0" />
        <mxCell id="FNpf5teK6vlug8w1t-XS-7" style="edgeStyle=orthogonalEdgeStyle;rounded=0;orthogonalLoop=1;jettySize=auto;html=1;entryX=0.5;entryY=0;entryDx=0;entryDy=0;" edge="1" parent="1" source="FNpf5teK6vlug8w1t-XS-1" target="FNpf5teK6vlug8w1t-XS-6">
          <mxGeometry relative="1" as="geometry" />
        </mxCell>
        <mxCell id="FNpf5teK6vlug8w1t-XS-1" value="&lt;font style=&quot;font-size: 19px;&quot;&gt;Start&lt;/font&gt;" style="rounded=1;whiteSpace=wrap;html=1;" vertex="1" parent="1">
          <mxGeometry x="365" y="40" width="120" height="60" as="geometry" />
        </mxCell>
        <mxCell id="FNpf5teK6vlug8w1t-XS-2" value="" style="rounded=0;whiteSpace=wrap;html=1;" vertex="1" parent="1">
          <mxGeometry x="30" y="50" width="120" height="60" as="geometry" />
        </mxCell>
        <mxCell id="FNpf5teK6vlug8w1t-XS-4" value="" style="rhombus;whiteSpace=wrap;html=1;" vertex="1" parent="1">
          <mxGeometry x="180" y="130" width="80" height="80" as="geometry" />
        </mxCell>
        <mxCell id="FNpf5teK6vlug8w1t-XS-5" value="" style="rounded=1;whiteSpace=wrap;html=1;" vertex="1" parent="1">
          <mxGeometry x="170" y="50" width="120" height="60" as="geometry" />
        </mxCell>
        <mxCell id="FNpf5teK6vlug8w1t-XS-9" style="edgeStyle=orthogonalEdgeStyle;rounded=0;orthogonalLoop=1;jettySize=auto;html=1;entryX=0.5;entryY=0;entryDx=0;entryDy=0;" edge="1" parent="1" source="FNpf5teK6vlug8w1t-XS-6" target="FNpf5teK6vlug8w1t-XS-8">
          <mxGeometry relative="1" as="geometry" />
        </mxCell>
        <mxCell id="FNpf5teK6vlug8w1t-XS-6" value="Choose Service" style="shape=parallelogram;perimeter=parallelogramPerimeter;whiteSpace=wrap;html=1;fixedSize=1;" vertex="1" parent="1">
          <mxGeometry x="365" y="140" width="120" height="60" as="geometry" />
        </mxCell>
        <mxCell id="FNpf5teK6vlug8w1t-XS-11" style="edgeStyle=orthogonalEdgeStyle;rounded=0;orthogonalLoop=1;jettySize=auto;html=1;entryX=0.5;entryY=0;entryDx=0;entryDy=0;" edge="1" parent="1" source="FNpf5teK6vlug8w1t-XS-8" target="FNpf5teK6vlug8w1t-XS-10">
          <mxGeometry relative="1" as="geometry" />
        </mxCell>
        <mxCell id="FNpf5teK6vlug8w1t-XS-8" value="Choose Team&amp;nbsp;&lt;br&gt;Member" style="shape=parallelogram;perimeter=parallelogramPerimeter;whiteSpace=wrap;html=1;fixedSize=1;" vertex="1" parent="1">
          <mxGeometry x="365" y="230" width="120" height="60" as="geometry" />
        </mxCell>
        <mxCell id="FNpf5teK6vlug8w1t-XS-13" style="edgeStyle=orthogonalEdgeStyle;rounded=0;orthogonalLoop=1;jettySize=auto;html=1;entryX=0.5;entryY=0;entryDx=0;entryDy=0;" edge="1" parent="1" source="FNpf5teK6vlug8w1t-XS-10" target="FNpf5teK6vlug8w1t-XS-12">
          <mxGeometry relative="1" as="geometry" />
        </mxCell>
        <mxCell id="FNpf5teK6vlug8w1t-XS-10" value="Choose Data Time" style="shape=parallelogram;perimeter=parallelogramPerimeter;whiteSpace=wrap;html=1;fixedSize=1;" vertex="1" parent="1">
          <mxGeometry x="365" y="330" width="120" height="60" as="geometry" />
        </mxCell>
        <mxCell id="FNpf5teK6vlug8w1t-XS-15" style="edgeStyle=orthogonalEdgeStyle;rounded=0;orthogonalLoop=1;jettySize=auto;html=1;entryX=0;entryY=0.5;entryDx=0;entryDy=0;" edge="1" parent="1" source="FNpf5teK6vlug8w1t-XS-12" target="FNpf5teK6vlug8w1t-XS-14">
          <mxGeometry relative="1" as="geometry" />
        </mxCell>
        <mxCell id="FNpf5teK6vlug8w1t-XS-20" style="edgeStyle=orthogonalEdgeStyle;rounded=0;orthogonalLoop=1;jettySize=auto;html=1;entryX=0.5;entryY=0;entryDx=0;entryDy=0;" edge="1" parent="1" source="FNpf5teK6vlug8w1t-XS-12" target="FNpf5teK6vlug8w1t-XS-22">
          <mxGeometry relative="1" as="geometry">
            <mxPoint x="425" y="630" as="targetPoint" />
          </mxGeometry>
        </mxCell>
        <mxCell id="FNpf5teK6vlug8w1t-XS-12" value="If The Team Member&amp;nbsp;&lt;br&gt;Available at the selected&lt;br&gt;&amp;nbsp;date time" style="rhombus;whiteSpace=wrap;html=1;" vertex="1" parent="1">
          <mxGeometry x="333" y="430" width="185" height="140" as="geometry" />
        </mxCell>
        <mxCell id="FNpf5teK6vlug8w1t-XS-17" style="edgeStyle=orthogonalEdgeStyle;rounded=0;orthogonalLoop=1;jettySize=auto;html=1;" edge="1" parent="1" source="FNpf5teK6vlug8w1t-XS-14" target="FNpf5teK6vlug8w1t-XS-16">
          <mxGeometry relative="1" as="geometry" />
        </mxCell>
        <mxCell id="FNpf5teK6vlug8w1t-XS-14" value="Booking" style="rounded=0;whiteSpace=wrap;html=1;" vertex="1" parent="1">
          <mxGeometry x="620" y="470" width="120" height="60" as="geometry" />
        </mxCell>
        <mxCell id="FNpf5teK6vlug8w1t-XS-16" value="&lt;font style=&quot;font-size: 19px;&quot;&gt;End&lt;/font&gt;" style="rounded=1;whiteSpace=wrap;html=1;" vertex="1" parent="1">
          <mxGeometry x="620" y="600" width="120" height="60" as="geometry" />
        </mxCell>
        <mxCell id="FNpf5teK6vlug8w1t-XS-18" value="Yes" style="text;html=1;align=center;verticalAlign=middle;resizable=0;points=[];autosize=1;strokeColor=none;fillColor=none;" vertex="1" parent="1">
          <mxGeometry x="510" y="470" width="40" height="30" as="geometry" />
        </mxCell>
        <mxCell id="FNpf5teK6vlug8w1t-XS-19" value="" style="shape=parallelogram;perimeter=parallelogramPerimeter;whiteSpace=wrap;html=1;fixedSize=1;" vertex="1" parent="1">
          <mxGeometry x="20" y="150" width="120" height="60" as="geometry" />
        </mxCell>
        <mxCell id="FNpf5teK6vlug8w1t-XS-21" value="No" style="text;html=1;align=center;verticalAlign=middle;resizable=0;points=[];autosize=1;strokeColor=none;fillColor=none;" vertex="1" parent="1">
          <mxGeometry x="430" y="568" width="40" height="30" as="geometry" />
        </mxCell>
        <mxCell id="FNpf5teK6vlug8w1t-XS-28" style="edgeStyle=orthogonalEdgeStyle;rounded=0;orthogonalLoop=1;jettySize=auto;html=1;entryX=0.042;entryY=0.5;entryDx=0;entryDy=0;exitX=0.5;exitY=1;exitDx=0;exitDy=0;entryPerimeter=0;" edge="1" parent="1" source="FNpf5teK6vlug8w1t-XS-22" target="FNpf5teK6vlug8w1t-XS-10">
          <mxGeometry relative="1" as="geometry">
            <mxPoint x="388" y="740" as="sourcePoint" />
            <mxPoint x="338" y="359.9999999999999" as="targetPoint" />
            <Array as="points">
              <mxPoint x="133" y="740" />
              <mxPoint x="133" y="360" />
            </Array>
          </mxGeometry>
        </mxCell>
        <mxCell id="FNpf5teK6vlug8w1t-XS-22" value="Do you want change Team Member" style="rhombus;whiteSpace=wrap;html=1;" vertex="1" parent="1">
          <mxGeometry x="339" y="610" width="172" height="130" as="geometry" />
        </mxCell>
        <mxCell id="FNpf5teK6vlug8w1t-XS-25" style="edgeStyle=orthogonalEdgeStyle;rounded=0;orthogonalLoop=1;jettySize=auto;html=1;entryX=0;entryY=0.5;entryDx=0;entryDy=0;exitX=0;exitY=0.5;exitDx=0;exitDy=0;" edge="1" parent="1" source="FNpf5teK6vlug8w1t-XS-22" target="FNpf5teK6vlug8w1t-XS-26">
          <mxGeometry relative="1" as="geometry">
            <mxPoint x="425" y="745" as="sourcePoint" />
            <mxPoint x="371.03999999999996" y="280" as="targetPoint" />
            <Array as="points">
              <mxPoint x="184" y="675" />
              <mxPoint x="184" y="430" />
            </Array>
          </mxGeometry>
        </mxCell>
        <mxCell id="FNpf5teK6vlug8w1t-XS-31" style="edgeStyle=orthogonalEdgeStyle;rounded=0;orthogonalLoop=1;jettySize=auto;html=1;entryX=0;entryY=0.5;entryDx=0;entryDy=0;" edge="1" parent="1" source="FNpf5teK6vlug8w1t-XS-26" target="FNpf5teK6vlug8w1t-XS-12">
          <mxGeometry relative="1" as="geometry" />
        </mxCell>
        <mxCell id="FNpf5teK6vlug8w1t-XS-26" value="Choose Team&amp;nbsp;&lt;br&gt;Member" style="shape=parallelogram;perimeter=parallelogramPerimeter;whiteSpace=wrap;html=1;fixedSize=1;" vertex="1" parent="1">
          <mxGeometry x="213" y="400" width="120" height="60" as="geometry" />
        </mxCell>
        <mxCell id="FNpf5teK6vlug8w1t-XS-29" value="Yes" style="text;html=1;align=center;verticalAlign=middle;resizable=0;points=[];autosize=1;strokeColor=none;fillColor=none;" vertex="1" parent="1">
          <mxGeometry x="308" y="640" width="40" height="30" as="geometry" />
        </mxCell>
        <mxCell id="FNpf5teK6vlug8w1t-XS-30" value="No" style="text;html=1;align=center;verticalAlign=middle;resizable=0;points=[];autosize=1;strokeColor=none;fillColor=none;" vertex="1" parent="1">
          <mxGeometry x="348" y="700" width="40" height="30" as="geometry" />
        </mxCell>
      </root>
    </mxGraphModel>
  </diagram>
</mxfile>
